<svg width="166" height="166" fill="none" xmlns="http://www.w3.org/2000/svg"><g clip-path="url(#clip0_397_168)"><path stroke="#5AC954" stroke-width="10" stroke-linecap="round" d="M156 84v33M9.888 86.11l-.778 35.002"/><path d="M160.467 77.467h-8.3A5.534 5.534 0 00146.633 83h-8.46a59.89 59.89 0 00.846-3.084l6.101-2.449a6.51 6.51 0 004.02-5.384 62.926 62.926 0 000-11.368 6.533 6.533 0 00-4.056-5.417l-6.067-2.421a57.124 57.124 0 00-6.87-16.534l2.551-6.003a6.392 6.392 0 00-.946-6.737 68.68 68.68 0 00-7.993-7.99 6.363 6.363 0 00-6.687-.933l-6.029 2.56a57.13 57.13 0 00-16.533-6.87l-2.443-6.09A6.51 6.51 0 0088.694.26a62.853 62.853 0 00-11.368 0 6.535 6.535 0 00-5.418 4.056l-2.42 6.068a57.1 57.1 0 00-16.534 6.867L46.95 14.7a6.401 6.401 0 00-6.74.946 69.031 69.031 0 00-7.987 7.993 6.363 6.363 0 00-.932 6.687l2.56 6.028a57.134 57.134 0 00-6.87 16.534l-6.101 2.446a6.51 6.51 0 00-4.02 5.386 62.677 62.677 0 000 11.366 6.534 6.534 0 004.056 5.417l6.07 2.424a56.875 56.875 0 001.787 5.84h-9.406a5.533 5.533 0 00-5.534-5.533h-8.3A5.533 5.533 0 000 85.767v35.967a5.531 5.531 0 005.533 5.533h8.3a5.536 5.536 0 005.475-4.952 49.094 49.094 0 0118.003 7.442l-.584.966a9.68 9.68 0 003.397 13.368 9.671 9.671 0 007.294 1.021v.086a9.697 9.697 0 0011.708 7.105c.036 0 .067-.028.103-.036 0 .036 0 .072.016.105a9.684 9.684 0 009.388 7.387 9.863 9.863 0 001.867-.227 8.297 8.297 0 006.75 6.351 8.293 8.293 0 008.425-3.861l2.39-3.948 8.127 5.951a8.296 8.296 0 008.431.774 8.302 8.302 0 004.724-7.027 9.191 9.191 0 007.987-3.97 9.603 9.603 0 001.89-5.594 9.682 9.682 0 009.714-13.247 8.958 8.958 0 002.304-1.126 9.668 9.668 0 003.284-12.383 37.809 37.809 0 0112.107-2.324 5.531 5.531 0 005.534 5.372h8.3a5.534 5.534 0 005.533-5.533V83a5.532 5.532 0 00-5.533-5.533zM13.833 121.734h-8.3V85.767h8.3v35.967zm132.8-8.17a38.73 38.73 0 00-16.085 3.619L91.939 90.304a5.533 5.533 0 00-6.917.49L70.94 103.88a4.293 4.293 0 01-5.572.41 4.397 4.397 0 01-1.673-2.989 4.386 4.386 0 01.984-3.28l16.65-17.535a9.897 9.897 0 0111.363-1.984l18.174 9.13a8.13 8.13 0 003.729.902h32.038v25.03zM47.1 80.806A38.333 38.333 0 0144.267 66.4a38.733 38.733 0 1177.466 0 38.38 38.38 0 01-3.798 16.6h-3.34a2.657 2.657 0 01-1.22-.276l-18.177-9.13a14.94 14.94 0 00-6.83-1.66 15.342 15.342 0 00-9.867 3.621A79.75 79.75 0 0066.4 74.7a36.969 36.969 0 00-19.3 6.106zm-15.04-3.51a2.766 2.766 0 00-1.68-1.981l-7.383-2.95a.996.996 0 01-.628-.794 57.44 57.44 0 010-10.397.966.966 0 01.592-.725l7.414-2.963a2.766 2.766 0 001.68-1.989 51.682 51.682 0 017.232-17.389 2.766 2.766 0 00.227-2.584l-3.138-7.384a.913.913 0 01.091-.946 63.727 63.727 0 017.352-7.348.918.918 0 01.948-.061l7.36 3.126a2.768 2.768 0 002.584-.227 51.683 51.683 0 0117.388-7.224 2.767 2.767 0 001.99-1.679L77.038 6.4a.993.993 0 01.794-.631 57.446 57.446 0 0110.397 0 .966.966 0 01.725.592l2.963 7.415a2.766 2.766 0 001.99 1.679 51.69 51.69 0 0117.385 7.232 2.764 2.764 0 002.584.227l7.384-3.138a.904.904 0 01.946.092 63.496 63.496 0 017.349 7.35.918.918 0 01.061.95l-3.127 7.36a2.776 2.776 0 00.227 2.583A51.694 51.694 0 01133.94 55.5a2.762 2.762 0 001.679 1.989l7.384 2.95a.997.997 0 01.629.793 57.314 57.314 0 010 10.397.971.971 0 01-.593.725l-7.414 2.963a2.764 2.764 0 00-1.68 1.987 51.167 51.167 0 01-1.604 5.7h-8.322a44.27 44.27 0 00-51.916-59.549A44.267 44.267 0 0038.733 66.4a43.8 43.8 0 003.75 17.649c-.211.166-.457.351-.651.509a5.422 5.422 0 01-3.458 1.21h-3.641a50.865 50.865 0 01-2.673-8.472zm10.81 61.973a4.202 4.202 0 01-1.406-5.702l5.204-8.618a4.152 4.152 0 117.174 4.18s-5.282 8.726-5.315 8.795a4.149 4.149 0 01-5.644 1.353l-.014-.008zm11.816 7.154a4.173 4.173 0 01-1.383-5.68 21258.8 21258.8 0 006.64-10.991 4.203 4.203 0 015.702-1.398 4.152 4.152 0 011.383 5.702l-6.64 10.973a4.201 4.201 0 01-5.702 1.403v-.009zM66.51 153.6a4.206 4.206 0 01-1.384-5.702l5.216-8.607a4.26 4.26 0 015.693-1.383 4.141 4.141 0 011.874 2.566 4.147 4.147 0 01-.49 3.139l-5.21 8.601a4.187 4.187 0 01-5.7 1.395v-.009zm14.444 5.534a2.776 2.776 0 01-1.708 1.25 2.76 2.76 0 01-2.093-.324 2.762 2.762 0 01-.927-3.801l5.213-8.604a2.776 2.776 0 011.71-1.296 2.775 2.775 0 012.121.316 2.765 2.765 0 01.897 3.851l-5.213 8.608zm47.186-29.88a4.38 4.38 0 01-4.941-.335 2.77 2.77 0 00-4.341 1.602 2.768 2.768 0 001.112 2.891l2.424 1.768a4.147 4.147 0 011.587 4.333 4.156 4.156 0 01-3.395 3.125 4.164 4.164 0 01-3.089-.749l-2.25-1.638a2.77 2.77 0 00-3.073-.093 2.758 2.758 0 00-1.262 2.804 2.757 2.757 0 001.123 1.796 4.198 4.198 0 01.844 5.749 4.14 4.14 0 01-2.721 1.648 4.137 4.137 0 01-3.089-.763l-1.079-.777a2.767 2.767 0 00-3.259 4.471 2.767 2.767 0 01-3.279 4.451l-8.518-6.236a8.3 8.3 0 00-7.431-12.499 9.68 9.68 0 00-4.618-7.628 9.562 9.562 0 00-5.763-1.347 9.65 9.65 0 00-11.958-9.319 9.79 9.79 0 00-2.072.794 9.688 9.688 0 00-8.218-5.837 9.679 9.679 0 00-8.955 4.631l-1.75 2.905a56.28 56.28 0 00-20.803-8.333V91.3h19.007a11.06 11.06 0 006.955-2.454A35.19 35.19 0 0166.4 80.234c2.57 0 4.98.108 7.24.304L60.607 94.266a9.822 9.822 0 0014.176 13.585l14.01-13.004 39.564 27.534a4.254 4.254 0 01-.216 6.861v.012zm32.326-10.287h-8.3V83h8.3v35.967z" fill="#351212"/></g><defs><clipPath id="clip0_397_168"><path fill="#fff" d="M0 0h166v166H0z"/></clipPath></defs></svg>