<svg width="166" height="166" fill="none" xmlns="http://www.w3.org/2000/svg"><path stroke="red" stroke-width="10" stroke-linecap="round" d="M27 31h110"/><ellipse cx="27.5" cy="43" rx="10.5" ry="7" fill="red"/><ellipse cx="49.5" cy="42.5" rx="10.5" ry="8.5" fill="red"/><ellipse cx="72.5" cy="43.5" rx="10.5" ry="8.5" fill="red"/><ellipse cx="94.5" cy="43.5" rx="10.5" ry="8.5" fill="red"/><ellipse cx="116.5" cy="43.5" rx="10.5" ry="8.5" fill="red"/><ellipse cx="138.5" cy="43.5" rx="10.5" ry="8.5" fill="red"/><path d="M149.4 112.667V49.482a14.53 14.53 0 002.767-8.453v-2.404a8.237 8.237 0 00-2.767-6.13v-13.13a8.298 8.298 0 00-8.3-8.3H24.9a8.3 8.3 0 00-8.3 8.3v13.128a8.228 8.228 0 00-2.767 6.131v2.404a14.528 14.528 0 002.767 8.453v63.185L.396 139.675c-.26.43-.396.923-.396 1.425v8.3a5.531 5.531 0 005.533 5.533h154.934A5.53 5.53 0 00166 149.4v-8.3c0-.502-.137-.995-.396-1.425L149.4 112.667zm-34.091 25.666l-4.15-10.356a5.502 5.502 0 00-5.132-3.477H59.973a5.501 5.501 0 00-5.138 3.48l-4.141 10.353H7.653l13.28-22.133h124.134l13.28 22.133h-43.038zm-5.959 0H56.653l3.32-8.3h46.054l3.323 8.3zm-89.983-99.6h16.6V41.5a8.32 8.32 0 01-2.714 6.142 8.225 8.225 0 01-6.408 2.119 8.621 8.621 0 01-7.478-8.732v-2.296zM124.5 41.5a8.298 8.298 0 01-8.3 8.3 8.301 8.301 0 01-8.3-8.3v-2.767h16.6V41.5zm-22.133 0a8.3 8.3 0 01-16.6 0v-2.767h16.6V41.5zm-22.134 0a8.3 8.3 0 11-16.6 0v-2.767h16.6V41.5zm-22.133 0a8.3 8.3 0 01-16.6 0v-2.767h16.6V41.5zM33.2 54.094a13.645 13.645 0 003.774-2.36 13.87 13.87 0 001.76-1.934 13.835 13.835 0 0022.133 0A13.833 13.833 0 0083 49.8a13.834 13.834 0 0022.133 0 13.84 13.84 0 0011.067 5.533 13.828 13.828 0 0011.067-5.533 12.963 12.963 0 005.533 4.296V99.6H33.2V54.094zm99.547-6.452a8.318 8.318 0 01-2.714-6.142v-2.767h16.6v2.296a8.62 8.62 0 01-7.47 8.732 8.212 8.212 0 01-6.416-2.12zM24.487 33.2l6.16-4.928a2.786 2.786 0 011.723-.606h101.26a2.784 2.784 0 011.726.606l6.156 4.928H24.488zm1.835 22.07c.451.04.896 0 1.345 0V99.6a5.532 5.532 0 005.533 5.533h99.6a5.533 5.533 0 005.533-5.533V55.256c.449 0 .894.055 1.345 0a13.002 13.002 0 004.189-1.165v56.575H22.133V54.091a13.002 13.002 0 004.19 1.178zM24.9 16.6h116.2a2.766 2.766 0 012.767 2.766v8.63l-5.055-4.043a8.3 8.3 0 00-5.182-1.82H32.37a8.3 8.3 0 00-5.185 1.82l-5.052 4.043v-8.63A2.766 2.766 0 0124.9 16.6zM5.533 149.4v-5.534h154.934v5.534H5.533z" fill="#351212"/><path d="M96.833 71.933h-1.056l-4.754-9.537a2.767 2.767 0 10-4.952 2.474l3.52 7.063H76.41l3.547-7.063a2.768 2.768 0 00-4.953-2.474l-4.78 9.537h-1.057a5.534 5.534 0 00-5.257 7.282l3.685 11.067a5.534 5.534 0 005.26 3.784h20.29a5.534 5.534 0 005.257-3.782l3.691-11.066a5.539 5.539 0 00-.763-4.99 5.53 5.53 0 00-4.497-2.295zm-3.688 16.6h-20.29l-3.688-11.067h27.666l-3.688 11.067z" fill="#351212"/></svg>