<svg width="166" height="166" fill="none" xmlns="http://www.w3.org/2000/svg"><g clip-path="url(#clip0_397_195)"><path stroke="#FF0101" stroke-width="10" stroke-linecap="round" d="M86.061 29.615l21.554 19.324m6.479-.009l30.836-30.024"/><path stroke="#FF0101" stroke-width="15" stroke-linecap="round" d="M153.256 10.658l1.402 13.086M138.5 9.5h13"/><path stroke="#FF0101" stroke-width="10" stroke-linecap="round" d="M38.073 67.929l41.856-41.002"/><path d="M160.467 141.609V55.333a8.302 8.302 0 00-8.3-8.3H141.1a8.301 8.301 0 00-8.3 8.3V141.1h-5.533V74.7a8.302 8.302 0 00-8.3-8.3H107.9a8.301 8.301 0 00-8.3 8.3v66.4h-5.533V66.4a8.3 8.3 0 00-8.3-8.3H74.7a8.3 8.3 0 00-8.3 8.3v74.7h-5.533V91.3a8.3 8.3 0 00-8.3-8.3H41.5a8.3 8.3 0 00-8.3 8.3v49.8h-8.3V8.3a8.078 8.078 0 00-2.415-5.83A8.127 8.127 0 0016.6 0a8.3 8.3 0 00-8.3 8.3v132.8a8.302 8.302 0 00-8.3 8.3 8.3 8.3 0 008.3 8.3 8.3 8.3 0 1016.6 0h132.8a8.342 8.342 0 008.3-8.3 8.299 8.299 0 00-5.533-7.791zm-22.134-86.276a2.766 2.766 0 012.767-2.766h11.067a2.767 2.767 0 012.766 2.767V141.1h-16.6V55.334zm-33.2 19.367a2.767 2.767 0 012.767-2.767h11.067a2.768 2.768 0 012.766 2.767v66.4h-16.6V74.7zm-33.2-8.3a2.767 2.767 0 012.767-2.767h11.067a2.767 2.767 0 012.766 2.767v74.7h-16.6V66.4zm-33.2 24.9a2.767 2.767 0 012.767-2.766h11.067a2.767 2.767 0 012.766 2.766v49.8h-16.6V91.3zm120.884 60.073a2.655 2.655 0 01-1.917.794H22.133a2.766 2.766 0 00-2.766 2.766v2.767a2.764 2.764 0 01-2.767 2.767 2.766 2.766 0 01-2.767-2.767v-2.767a2.768 2.768 0 00-2.766-2.766H8.3a2.767 2.767 0 010-5.534h2.767a2.766 2.766 0 002.766-2.766V8.3A2.767 2.767 0 0116.6 5.533a2.703 2.703 0 011.973.85 2.654 2.654 0 01.794 1.917v135.567a2.766 2.766 0 002.766 2.766H157.7a2.766 2.766 0 012.546 3.841c-.146.34-.36.645-.629.899z" fill="#351212"/><path d="M38.733 77.425a8.22 8.22 0 005.855-2.401L83 36.644l17.245 17.245a15.069 15.069 0 0020.846 0l25.567-25.592a8.298 8.298 0 008.591 7.652 8.301 8.301 0 007.984-8.282V8.3a8.298 8.298 0 00-8.3-8.3h-19.366a8.299 8.299 0 00-.628 16.575l-24.272 24.253L93.425 23.58a14.744 14.744 0 00-20.847 0L32.895 63.296a8.261 8.261 0 005.838 14.13zM36.797 67.23L76.49 27.495a9.206 9.206 0 0113.023 0l18.561 18.562a3.733 3.733 0 005.185 0l30.298-30.268a2.767 2.767 0 00-1.956-4.723h-6.034a2.768 2.768 0 110-5.533h19.366A2.768 2.768 0 01157.7 8.3v19.367a2.77 2.77 0 01-2.767 2.766 2.766 2.766 0 01-2.766-2.766v-6.032a2.774 2.774 0 00-1.708-2.555 2.77 2.77 0 00-3.015.6l-30.265 30.294a9.22 9.22 0 01-13.022 0L85.592 31.413a3.503 3.503 0 00-5.184 0l-39.724 39.69a2.766 2.766 0 01-3.898 0 2.733 2.733 0 01.01-3.873z" fill="#351212"/></g><defs><clipPath id="clip0_397_195"><path fill="#fff" d="M0 0h166v166H0z"/></clipPath></defs></svg>