<svg width="166" height="166" fill="none" xmlns="http://www.w3.org/2000/svg"><g clip-path="url(#clip0_397_203)"><ellipse cx="83" cy="77" rx="33.767" ry="36.192" transform="rotate(1.985 83 77)" fill="#5AC954"/><path d="M83 22.134c-45.44 0-74.147 43.232-81.88 56.484a8.161 8.161 0 00.327 8.79c9.066 13.244 41.771 56.459 81.553 56.459s72.487-43.215 81.553-56.462a8.159 8.159 0 00.326-8.787c-7.732-13.252-36.439-56.484-81.88-56.484zm0 5.533c31.291 0 54.312 22.302 67.213 39.093C135.378 54.44 110.985 38.734 83 38.734c-27.985 0-52.379 15.706-67.213 28.026C28.687 49.97 51.709 27.667 83 27.667zm47.033 49.8a47.023 47.023 0 01-17.873 36.94 47.018 47.018 0 01-40.071 8.848 47.033 47.033 0 01-31.043-67.011 107.541 107.541 0 0115.67-7.146 38.734 38.734 0 1052.567 0 107.553 107.553 0 0115.671 7.146 47.153 47.153 0 015.079 21.223zm-13.833 0a33.2 33.2 0 11-33.2-33.2 33.235 33.235 0 0133.2 33.2zM83 138.334c-9.374 0-42.626-3.898-76.985-54.053a2.594 2.594 0 01-.238-.481 152.218 152.218 0 0127.315-22.786 52.566 52.566 0 1099.816 0A152.455 152.455 0 01160.223 83.8a2.528 2.528 0 01-.238.479C125.626 134.436 92.373 138.334 83 138.334z" fill="#351212"/><path d="M74.7 88.533a2.767 2.767 0 00-5.533 0 13.858 13.858 0 0011.066 13.557v.276a2.768 2.768 0 004.723 1.957c.52-.519.81-1.223.81-1.957v-.276a13.834 13.834 0 000-27.114V58.61A8.3 8.3 0 0191.3 66.4a2.766 2.766 0 105.533 0 13.859 13.859 0 00-11.066-13.556v-.277a2.767 2.767 0 00-5.534 0v.277a13.833 13.833 0 000 27.114v16.37a8.3 8.3 0 01-5.533-7.794zm16.6 0a8.3 8.3 0 01-5.533 7.791V80.742a8.3 8.3 0 015.533 7.791zM74.7 66.4a8.3 8.3 0 015.533-7.791V74.19A8.3 8.3 0 0174.7 66.4z" fill="#351212"/></g><defs><clipPath id="clip0_397_203"><path fill="#fff" d="M0 0h166v166H0z"/></clipPath></defs></svg>