<svg width="79" height="80" fill="none" xmlns="http://www.w3.org/2000/svg"><g clip-path="url(#clip0_3_195)"><path d="M1.686 39.522a38.217 38.217 0 005.07 19.07L1.368 78.355l20.13-5.303a37.81 37.81 0 0018.146 4.641h.016c20.928 0 37.963-17.11 37.972-38.142.004-10.192-3.942-19.775-11.112-26.985-7.17-7.209-16.703-11.18-26.861-11.185-20.93 0-37.964 17.11-37.973 38.14" fill="url(#paint0_linear_3_195)"/><path d="M.33 39.509a39.587 39.587 0 005.25 19.753L0 79.736l20.852-5.494a39.167 39.167 0 0018.796 4.81h.017c21.678 0 39.326-17.727 39.335-39.512.004-10.557-4.085-20.485-11.51-27.953C60.063 4.12 50.188.004 39.665 0 17.984 0 .34 17.724.33 39.509zM12.748 58.23l-.779-1.242a32.87 32.87 0 01-4.998-17.477C6.98 21.404 21.644 6.673 39.678 6.673c8.733.004 16.94 3.424 23.113 9.63 6.173 6.208 9.57 14.46 9.568 23.235-.008 18.107-14.674 32.84-32.694 32.84h-.013a32.538 32.538 0 01-16.64-4.578l-1.194-.712-12.374 3.26 3.304-12.118z" fill="url(#paint1_linear_3_195)"/><path d="M29.834 22.991c-.736-1.644-1.51-1.677-2.211-1.706-.574-.025-1.229-.023-1.884-.023-.655 0-1.72.247-2.62 1.235-.901.989-3.44 3.378-3.44 8.236 0 4.859 3.521 9.555 4.012 10.214.492.658 6.8 10.948 16.79 14.906 8.302 3.29 9.991 2.636 11.793 2.47 1.803-.164 5.815-2.388 6.634-4.694.82-2.305.82-4.282.574-4.695-.246-.411-.901-.658-1.884-1.152-.983-.494-5.815-2.883-6.716-3.213-.901-.329-1.556-.493-2.212.495-.655.988-2.537 3.212-3.111 3.87-.573.66-1.147.743-2.13.249-.983-.496-4.148-1.537-7.903-4.901-2.922-2.618-4.895-5.85-5.468-6.84-.573-.987-.061-1.522.431-2.014.442-.442.984-1.153 1.476-1.73.49-.576.653-.988.98-1.647.329-.659.165-1.236-.08-1.73-.247-.493-2.157-5.377-3.03-7.33z" fill="#fff"/></g><defs><linearGradient id="paint0_linear_3_195" x1="39.5" y1="78.356" x2="39.5" y2="1.381" gradientUnits="userSpaceOnUse"><stop stop-color="#1FAF38"/><stop offset="1" stop-color="#60D669"/></linearGradient><linearGradient id="paint1_linear_3_195" x1="39.5" y1="79.736" x2="39.5" y2="0" gradientUnits="userSpaceOnUse"><stop stop-color="#F9F9F9"/><stop offset="1" stop-color="#fff"/></linearGradient><clipPath id="clip0_3_195"><path fill="#fff" d="M0 0h79v80H0z"/></clipPath></defs></svg>