<svg width="127" height="127" fill="none" xmlns="http://www.w3.org/2000/svg"><g clip-path="url(#clip0_346_155)"><path d="M122.767 50.753H95.316l17.714-19.546 6.316-6.966 6.003-6.62a6.36 6.36 0 00-.438-8.971l-7.648-6.956a6.35 6.35 0 00-8.968.439l-6.013 6.62-38.077 42H21.167v-6.35c0-5.845-4.739-10.584-10.584-10.584S0 38.558 0 44.403V116.4a10.567 10.567 0 0010.583 10.552h112.184a4.234 4.234 0 004.233-4.234V54.986a4.233 4.233 0 00-4.233-4.233zm-10.584 29.633H95.25v-25.4h16.933v25.4zm-59.03-.29l2.678-6.473 3.5 3.175-6.177 3.298zM63.3 74.67l-5.747-5.203 2.864-6.928 9.493 8.609-6.61 3.522zm34.379-54.536l3.833 3.475-35.069 38.68-3.833-3.475 35.069-38.68zM73.412 68.607L69.58 65.13l35.067-38.678 3.833 3.476-35.067 38.678zm37.912-41.815l-10.795-9.794 3.476-3.831 4.305 3.903 6.496 5.89-3.482 3.832zm.095-21.815a2.117 2.117 0 012.991-.148l7.667 6.952c.865.785.93 2.122.146 2.988l-4.581 5.055-4.305-3.903-6.498-5.891 4.58-5.053zM58.274 57.295a3.98 3.98 0 00-.735 1.158l-4.622 11.161V54.986h7.45l-2.093 2.31zm-9.59-2.31v25.4H31.75v-25.4h16.933zm-38.1-16.932a6.35 6.35 0 016.35 6.35V52.9l.042 55.033a10.687 10.687 0 00-8.865-1.873 10.354 10.354 0 00-3.878 1.808V44.403a6.35 6.35 0 016.35-6.35zm38.1 84.666H31.75v-25.4h16.933v25.4zm4.233-25.4H69.85v25.4H52.917v-25.4zm21.166 0h16.934v25.4H74.083v-25.4zm21.167 25.4v-25.4h16.933v25.4H95.25zm27.517 0h-6.35v-25.4a4.234 4.234 0 00-4.234-4.233H31.75a4.233 4.233 0 00-4.233 4.233v25.4H10.583a6.32 6.32 0 01-4.967-2.394 6.252 6.252 0 01-1.383-3.987v-.026c.005-.494.064-.986.176-1.467a6.282 6.282 0 014.657-4.656 6.372 6.372 0 015.361 1.113 4.146 4.146 0 004.384.408 4.232 4.232 0 002.356-3.797V54.986h6.35v25.4a4.233 4.233 0 004.233 4.233h20.927a4 4 0 001.895-.48L74.257 73.62a3.955 3.955 0 001.08-.847l15.68-17.28v24.892a4.233 4.233 0 004.233 4.233h16.934a4.233 4.233 0 004.233-4.233v-25.4h6.35v67.733z" fill="#351212"/></g><defs><clipPath id="clip0_346_155"><path fill="#fff" d="M0 0h127v127H0z"/></clipPath></defs></svg>