<svg width="128" height="127" fill="none" xmlns="http://www.w3.org/2000/svg"><g clip-path="url(#clip0_346_160)" fill="#351212"><path d="M127.5 107.949a4.233 4.233 0 00-4.233-4.233h-10.584V93.132a4.233 4.233 0 00-4.233-4.233H97.867V78.316a4.233 4.233 0 00-4.234-4.234h-8.466V14.816C85.16 8.974 80.425 4.239 74.583 4.232H21.667a2.4 2.4 0 00-1.497.62L1.12 23.903A2.36 2.36 0 00.5 25.4v78.317c.007 5.842 4.741 10.576 10.583 10.583h23.284v4.233a4.234 4.234 0 004.233 4.234H64a4.186 4.186 0 002.117-.589c.64.381 1.371.585 2.116.589h25.4a4.186 4.186 0 002.117-.589c.64.381 1.371.585 2.117.589h25.4a4.234 4.234 0 004.233-4.234V107.95zM93.633 78.316v10.583h-25.4V78.316h25.4zM19.55 11.459v5.473a6.35 6.35 0 01-6.35 6.35H7.726L19.55 11.46zm14.817 96.49v2.117H11.083a6.35 6.35 0 01-6.35-6.35v-76.2H13.2c5.842-.007 10.576-4.741 10.583-10.584V8.466h50.8a6.35 6.35 0 016.35 6.35v59.266h-12.7A4.233 4.233 0 0064 78.316v10.583H53.417a4.233 4.233 0 00-4.234 4.233v10.584H38.6a4.233 4.233 0 00-4.233 4.233zM64 118.532H38.6v-10.583H64v10.583zm-10.583-14.816V93.132h25.4v10.584h-25.4zm40.216 4.233v10.583h-25.4v-10.583h25.4zm-10.583-4.233V93.132h25.4v10.584h-25.4zm14.817 14.816v-10.583h25.4v10.583h-25.4z"/><path d="M32.25 59.266a2.117 2.117 0 10-4.233 0c0 6.386 5.533 11.67 12.7 12.556v2.26a2.117 2.117 0 004.233 0v-2.26c7.167-.887 12.7-6.17 12.7-12.556 0-6.386-5.533-11.67-12.7-12.556V29.804c4.824.788 8.467 4.206 8.467 8.295a2.117 2.117 0 104.233 0c0-6.386-5.533-11.669-12.7-12.556v-2.26a2.117 2.117 0 10-4.233 0v2.26c-7.167.887-12.7 6.17-12.7 12.556 0 6.386 5.533 11.67 12.7 12.556v16.906c-4.824-.787-8.467-4.206-8.467-8.295zm12.7-8.295c4.824.787 8.467 4.206 8.467 8.295 0 4.09-3.643 7.508-8.467 8.295v-16.59zm-12.7-12.872c0-4.09 3.643-7.507 8.467-8.295v16.59c-4.824-.787-8.467-4.205-8.467-8.295z"/><path fill-rule="evenodd" clip-rule="evenodd" d="M13.2 86.782h27.517a2.117 2.117 0 000-4.233H13.2a2.117 2.117 0 000 4.233zm29.634 6.35a2.117 2.117 0 00-2.117-2.116H13.2a2.117 2.117 0 000 4.233h27.517a2.117 2.117 0 002.117-2.117z"/></g><defs><clipPath id="clip0_346_160"><path fill="#fff" transform="translate(.5)" d="M0 0h127v127H0z"/></clipPath></defs></svg>