<svg width="127" height="127" fill="none" xmlns="http://www.w3.org/2000/svg"><path d="M95.417 0H7.598a1.86 1.86 0 00-1.86 1.86v43.41a1.86 1.86 0 103.72 0V3.72h84.098v3.186a1.86 1.86 0 103.721 0V1.86A1.86 1.86 0 0095.417 0z" fill="#351212"/><path d="M28.896 19.826c-5.972 0-10.831 4.859-10.831 10.83 0 5.973 4.859 10.832 10.83 10.832 5.973 0 10.831-4.86 10.831-10.831 0-5.972-4.858-10.83-10.83-10.83zm0 17.94a7.117 7.117 0 01-7.11-7.11c0-3.92 3.189-7.11 7.11-7.11 3.92 0 7.11 3.19 7.11 7.11 0 3.922-3.19 7.11-7.11 7.11zm7.164 16.607H21.37a1.86 1.86 0 100 3.72h14.69a1.86 1.86 0 100-3.72zm15.446 7.545H21.37a1.86 1.86 0 100 3.72h30.137a1.86 1.86 0 100-3.72zM32.083 69.46H21.37a1.86 1.86 0 100 3.722h10.714a1.86 1.86 0 100-3.721z" fill="#351212"/><path d="M121.263 21.789a1.86 1.86 0 00-.545-1.316l-8.776-8.776a1.86 1.86 0 00-2.631 0L97.277 23.731v-9.307a1.86 1.86 0 10-3.72 0v13.027L67.875 53.132a1.86 1.86 0 002.631 2.632l40.12-40.12 6.145 6.144-4.437 4.437-.965-.965a1.86 1.86 0 00-2.631 0L82.013 51.987a1.86 1.86 0 000 2.631l.964.965-37.064 37.063-6.144-6.145 25.42-25.42a1.86 1.86 0 10-2.63-2.632L51.546 69.462h-11.28a1.86 1.86 0 100 3.72h7.56L33.257 87.751c-.16.16-.291.35-.384.559L28.06 99.12a3.972 3.972 0 00-.338 1.864H21.37a1.86 1.86 0 100 3.721h10.135c.035 0 .07-.004.104-.005l.063.002a3.98 3.98 0 001.622-.347l10.812-4.813a1.86 1.86 0 00.559-.384l15.504-15.505c.33.304.77.491 1.256.491H83.09a1.86 1.86 0 100-3.72H63.398l7.241-7.242h12.45a1.86 1.86 0 100-3.72h-8.73l11.248-11.248.965.964a1.857 1.857 0 002.631 0l4.353-4.352v37.732l-26.6.063a4.32 4.32 0 00-3.082 1.29 4.321 4.321 0 00-1.26 3.094l.203 26.274H9.46v-70.49a1.86 1.86 0 10-3.721 0v72.35A1.86 1.86 0 007.598 127h57.094c.487 0 .97-.201 1.315-.545L96.732 95.73a1.89 1.89 0 00.545-1.316V51.106l18.653-18.653a1.86 1.86 0 000-2.63l-.965-.966 5.753-5.752a1.86 1.86 0 00.545-1.315zM42.277 96.283l-10.497 4.673c-.054.024-.153.068-.271-.05-.119-.118-.074-.218-.05-.271l4.673-10.497.653-.653 6.145 6.145-.653.653zm24.241 24.399l-.182-23.706a.63.63 0 01.628-.635l23.95-.056-24.396 24.397zm21.37-65.45l-1.93-1.93 24.096-24.095 1.93 1.93-24.096 24.095z" fill="#351212"/><path d="M83.09 19.826h-36a1.86 1.86 0 00-1.86 1.86v6.854a1.86 1.86 0 001.86 1.86h36a1.86 1.86 0 001.86-1.86v-6.854a1.86 1.86 0 00-1.86-1.86zm-1.861 6.853H48.952v-3.132h32.277v3.132zM68.754 33.61H47.091a1.86 1.86 0 100 3.72h21.663a1.86 1.86 0 100-3.72zm-33.9 79.007H21.296a1.86 1.86 0 000 3.721h13.558a1.86 1.86 0 100-3.721z" fill="#351212"/></svg>