<svg width="128" height="127" fill="none" xmlns="http://www.w3.org/2000/svg"><g clip-path="url(#clip0_346_210)" fill="#351212"><path d="M121.15 23.284H97.868a6.35 6.35 0 00-6.35-6.35H80.935v-2.116a6.35 6.35 0 00-6.35-6.35h-24.09l-2.478-4.957a6.318 6.318 0 00-5.68-3.509h-9.583a6.318 6.318 0 00-5.679 3.51l-2.478 4.956h-9.275C7.144 8.478.516 15.106.506 23.284v12.7c.009 7.979 6.335 14.518 14.31 14.79L5.08 95.53a6.333 6.333 0 001.776 12.418h31.748a6.35 6.35 0 002.521-12.172L48.142 63.5h10.957a4.185 4.185 0 003.26-1.55 4.31 4.31 0 00.865-3.614c-.969-4.644.73-6.81 1.514-7.535h9.848a6.35 6.35 0 006.35-6.35v-2.117h10.583a6.35 6.35 0 006.35-6.35h23.282a6.35 6.35 0 00-.001-12.699zM30.862 5.406a2.102 2.102 0 011.892-1.17h9.584a2.101 2.101 0 011.892 1.17l1.532 3.062H29.33l1.533-3.062zM19.144 50.8H46.57l-9.66 44.448H9.482L19.144 50.8zm19.46 52.914H6.855a2.117 2.117 0 010-4.233h31.376c.124.023.25.037.375.04.036 0 .068-.017.104-.019a2.117 2.117 0 01-.106 4.212zM59.1 59.266H49.062l1.84-8.466h8.796a13.521 13.521 0 00-.6 8.466zM76.702 44.45a2.117 2.117 0 01-2.116 2.116H15.322C9.48 46.56 4.746 41.826 4.739 35.983h6.35a2.117 2.117 0 000-4.232h-6.35v-4.234h6.35a2.117 2.117 0 000-4.233h-6.35c.007-5.841 4.741-10.575 10.583-10.583h35.982v8.467a2.117 2.117 0 004.232 0V12.7h4.234v8.467a2.117 2.117 0 004.233 0V12.7h4.233v8.467a2.117 2.117 0 004.233 0V12.7h2.116c1.17 0 2.117.948 2.117 2.117V44.45zm16.933-8.466a2.117 2.117 0 01-2.117 2.116H80.935V21.168h10.583c1.17 0 2.117.947 2.117 2.116v12.7zm27.515-4.234H97.868v-4.233h23.282a2.117 2.117 0 110 4.233z"/><path d="M87.285 29.635a2.117 2.117 0 100-4.233 2.117 2.117 0 000 4.233zm38.405 49.917a6.547 6.547 0 00.182-6.832l-3.329-5.82a6.319 6.319 0 00-5.77-3.207l-4.529.212-9.614-5.603-2.066-4.021a6.315 6.315 0 00-5.625-3.48h-6.841a6.316 6.316 0 00-5.626 3.475l-2.066 4.022-9.613 5.598-4.53-.212a6.259 6.259 0 00-5.77 3.207l-3.329 5.818a6.562 6.562 0 00.182 6.835l2.424 3.755v11.2l-2.424 3.747a6.549 6.549 0 00-.182 6.832l3.33 5.821a6.348 6.348 0 005.77 3.206l4.529-.211 9.613 5.598 2.066 4.021a6.314 6.314 0 005.626 3.484h6.84a6.313 6.313 0 005.626-3.475l2.066-4.022 9.614-5.598 4.529.212a6.352 6.352 0 005.77-3.207l3.329-5.818a6.56 6.56 0 00-.182-6.835l-2.423-3.754V83.299l2.423-3.747zm-6.318 16.721l2.762 4.267a2.36 2.36 0 01.064 2.432l-3.33 5.823a2.058 2.058 0 01-1.905 1.079l-5.147-.233a2.121 2.121 0 00-1.162.286l-10.689 6.225c-.35.204-.634.503-.819.864l-2.337 4.576a2.1 2.1 0 01-1.86 1.172h-6.851a2.1 2.1 0 01-1.86-1.172l-2.34-4.578a2.115 2.115 0 00-.819-.864l-10.688-6.225a2.127 2.127 0 00-1.059-.288h-.112l-5.15.237a2.056 2.056 0 01-1.904-1.079l-3.328-5.821a2.358 2.358 0 01.064-2.43l2.751-4.27c.222-.343.34-.742.34-1.15v-12.45c0-.407-.118-.807-.34-1.149l-2.751-4.271a2.36 2.36 0 01-.064-2.432l3.33-5.82a2.043 2.043 0 011.905-1.08l5.15.237c.406.024.812-.075 1.161-.286l10.689-6.225a2.12 2.12 0 00.819-.863l2.347-4.579a2.102 2.102 0 011.859-1.172h6.84c.792.01 1.51.462 1.86 1.172l2.34 4.579c.184.36.469.66.819.863l10.688 6.225c.349.212.755.312 1.162.286l5.15-.237a2.049 2.049 0 011.905 1.08l3.346 5.822c.43.76.406 1.694-.063 2.43l-2.773 4.271a2.12 2.12 0 00-.339 1.15v12.449c0 .408.118.807.339 1.15z"/><path d="M91.518 67.732c-11.69 0-21.165 9.477-21.165 21.166s9.476 21.166 21.165 21.166c11.69 0 21.166-9.477 21.166-21.166-.013-11.684-9.482-21.153-21.166-21.166zm0 38.099c-9.351 0-16.933-7.582-16.933-16.933 0-9.352 7.582-16.933 16.933-16.933 9.352 0 16.933 7.581 16.933 16.933-.011 9.347-7.586 16.922-16.933 16.933z"/></g><defs><clipPath id="clip0_346_210"><path fill="#fff" transform="translate(.5)" d="M0 0h127v127H0z"/></clipPath></defs></svg>