<svg width="127" height="127" fill="none" xmlns="http://www.w3.org/2000/svg"><g clip-path="url(#clip0_346_229)" fill="#351212"><path d="M121.363 63.5H100.33a4.96 4.96 0 00-4.104 2.117c-48.205-.01 7.262.102-65.448-.021A4.966 4.966 0 0026.67 63.5H5.637A5.616 5.616 0 000 69.082v31.17a5.617 5.617 0 005.637 5.582h15.075a5.069 5.069 0 004.114-2.117h5.144l-1.607 4.28a6.742 6.742 0 008.967 8.6 6.725 6.725 0 008.727 3.287 6.73 6.73 0 003.704 3.399 6.658 6.658 0 005.023-.118 6.712 6.712 0 003.702 3.399 6.772 6.772 0 008.466-3.401l6.35 3.094a6.742 6.742 0 009.049-3.215 6.915 6.915 0 00.31-4.976 6.742 6.742 0 003.976-8.424 6.563 6.563 0 004.335-5.925h11.202a5.068 5.068 0 004.114 2.117h15.075a5.617 5.617 0 005.637-5.582v-31.17a5.616 5.616 0 00-5.637-5.582zm-99.824 37.442a.824.824 0 01-.827.658H5.637a1.378 1.378 0 01-1.404-1.348v-31.17a1.378 1.378 0 011.404-1.348H26.67a.808.808 0 01.825.927l-5.956 32.281zm15.522 10.344a2.558 2.558 0 01-3.273 1.482 2.517 2.517 0 01-1.481-3.264l2.63-6.985a2.553 2.553 0 014.928.914c.009.572-2.722 7.642-2.804 7.853zm7.26-7.218a2.545 2.545 0 014.765 1.787l-3.288 8.704a2.54 2.54 0 01-3.28 1.481 2.54 2.54 0 01-1.482-3.262l3.285-8.71zm13.492 5.068l-3.288 8.706a2.56 2.56 0 01-3.283 1.481 2.523 2.523 0 01-1.481-3.264l3.289-8.703a2.544 2.544 0 114.765 1.784l-.002-.004zm7.408 6.773l-1.973 5.224a2.562 2.562 0 01-3.28 1.482 2.54 2.54 0 01-1.482-3.266l1.975-5.229a2.555 2.555 0 013.278-1.481 2.526 2.526 0 011.484 3.262l-.002.008zm25.315-19.897a2.54 2.54 0 01-3.363 1.194h-.02l-5.026-2.417a2.117 2.117 0 10-1.825 3.82l5.036 2.407a2.59 2.59 0 011.206 3.402 2.524 2.524 0 01-3.359 1.204c-1.181-.55-3.958-1.886-5.438-2.591a2.117 2.117 0 00-1.826 3.81c.101.049 5.422 2.599 5.526 2.64a2.548 2.548 0 01-2.328 4.534l-5.103-2.449a2.116 2.116 0 00-1.831 3.81l5.111 2.453.015.013a2.565 2.565 0 011.211 3.401 2.52 2.52 0 01-3.363 1.19l-6.66-3.247.684-1.808a6.774 6.774 0 00-3.956-8.725 6.696 6.696 0 00-3.037-.375 6.737 6.737 0 00-9.394-6.254 6.771 6.771 0 00-10.008-2.589 6.752 6.752 0 00-10.951.049h-5.715l5.48-29.65 27.404.05-11.887 13.07a7.686 7.686 0 0010.825 10.88l12.238-11.057 19.162 9.83a2.553 2.553 0 011.194 3.397l-.002.008zm2.67 3.472a6.586 6.586 0 001.16-1.67 6.773 6.773 0 00-3.138-8.998L73.54 79.744l1.08-.976a2.117 2.117 0 10-2.832-3.145L55.122 90.68a3.452 3.452 0 01-4.868-4.885l13.398-14.734a3.552 3.552 0 012.392-1.164l8.926.017v-.034l20.44-.03 5.477 29.634h-7.682zm29.561.768a1.379 1.379 0 01-1.404 1.348h-15.075a.823.823 0 01-.827-.656l-5.965-32.281a.808.808 0 01.834-.93h21.042a1.378 1.378 0 011.403 1.349l-.008 31.17z"/><path d="M14.817 71.967a6.35 6.35 0 100 12.7 6.35 6.35 0 000-12.7zm0 8.466a2.117 2.117 0 110-4.233 2.117 2.117 0 010 4.233zm97.366-8.466a6.35 6.35 0 100 12.7 6.35 6.35 0 000-12.7zm0 8.466a2.116 2.116 0 110-4.232 2.116 2.116 0 010 4.233zM80.433 0H50.8a4.233 4.233 0 00-4.233 4.233v12.7h-12.7a4.233 4.233 0 00-4.233 4.234v12.7h-12.7A4.233 4.233 0 0012.7 38.1v12.7a4.233 4.233 0 004.233 4.233h29.634a4.186 4.186 0 002.117-.588c.64.381 1.37.584 2.116.588h29.633a4.186 4.186 0 002.117-.588c.64.381 1.371.584 2.117.588H114.3a4.234 4.234 0 004.234-4.233V38.1a4.234 4.234 0 00-4.234-4.233h-12.7v-12.7a4.233 4.233 0 00-4.233-4.234h-12.7v-12.7A4.233 4.233 0 0080.433 0zM50.8 4.233h29.633v12.7H50.8v-12.7zM46.567 50.8H16.933V38.1h29.634v12.7zm-12.7-16.933v-12.7H63.5v12.7H33.867zM80.433 38.1v12.7H50.8V38.1h29.633zm33.867 0v12.7H84.667V38.1H114.3zM97.367 21.167v12.7H67.734v-12.7h29.633z"/></g><defs><clipPath id="clip0_346_229"><path fill="#fff" d="M0 0h127v127H0z"/></clipPath></defs></svg>