<svg width="218" height="218" fill="none" xmlns="http://www.w3.org/2000/svg"><g clip-path="url(#clip0_367_89)" fill="#351212"><path d="M194.74 41.7h6.736a4.256 4.256 0 000-8.51h-16.169a4.255 4.255 0 00-4.255 4.255v16.169a4.255 4.255 0 008.51 0v-4.682C202.472 66.216 209.49 87.188 209.49 109c0 55.411-45.079 100.49-100.49 100.49C53.59 209.49 8.51 164.411 8.51 109 8.51 53.59 53.59 8.51 109 8.51c4.098 0 8.222.249 12.26.74a4.254 4.254 0 101.027-8.448A110.557 110.557 0 00109 0C79.885 0 52.513 11.338 31.925 31.925 11.338 52.513 0 79.885 0 109c0 29.115 11.338 56.488 31.925 77.075C52.513 206.662 79.885 218 109 218c29.115 0 56.488-11.338 77.075-31.925C206.662 165.488 218 138.115 218 109c0-24.569-8.208-48.155-23.26-67.3z"/><path d="M46.155 64.257a4.256 4.256 0 00-5.871 1.319C30.57 80.918 26.27 99.368 28.176 117.529c1.933 18.43 10.229 35.81 23.357 48.939 15.844 15.844 36.655 23.766 57.467 23.766 20.813 0 41.624-7.922 57.468-23.766 31.687-31.687 31.687-83.247 0-114.934-13.109-13.108-30.46-21.4-48.86-23.35-18.127-1.92-36.558 2.346-51.893 12.012a4.255 4.255 0 004.537 7.2C99.16 29.176 136.25 33.35 160.45 57.55c28.37 28.37 28.37 74.53 0 102.899-28.369 28.37-74.53 28.37-102.9 0-23.865-23.865-28.103-61.851-10.076-90.321a4.256 4.256 0 00-1.319-5.872z"/><path d="M164.316 113.324h5.247a4.255 4.255 0 100-8.51h-5.247a4.256 4.256 0 000 8.51zm-120.134-4.393a4.256 4.256 0 004.255 4.255h5.247a4.256 4.256 0 000-8.51h-5.247a4.255 4.255 0 00-4.255 4.255zm69.142-55.247v-5.247a4.255 4.255 0 00-8.51 0v5.247a4.255 4.255 0 008.51 0zm-8.648 110.632v5.247a4.256 4.256 0 008.51 0v-5.247a4.255 4.255 0 10-8.51 0zM87.672 81.655a4.256 4.256 0 00-6.018 6.018l14.421 14.42A14.567 14.567 0 0094.341 109c0 8.083 6.576 14.659 14.659 14.659 8.083 0 14.659-6.576 14.659-14.659 0-2.496-.629-4.847-1.734-6.907l29.097-29.097a4.255 4.255 0 10-6.018-6.018l-29.097 29.097A14.565 14.565 0 00109 94.342a14.57 14.57 0 00-6.907 1.733l-14.42-14.42zM115.15 109a6.156 6.156 0 01-6.149 6.149 6.155 6.155 0 01-6.148-6.149 6.155 6.155 0 016.148-6.148A6.156 6.156 0 01115.15 109zM57.548 57.548a4.273 4.273 0 001.25-3.008 4.28 4.28 0 00-1.25-3.008 4.282 4.282 0 00-3.008-1.247 4.284 4.284 0 00-3.008 1.247 4.289 4.289 0 00-1.247 3.008 4.28 4.28 0 001.247 3.008 4.289 4.289 0 003.008 1.247 4.282 4.282 0 003.008-1.247zm80.927-44.835a4.272 4.272 0 003.012-1.247 4.282 4.282 0 001.247-3.008 4.284 4.284 0 00-1.247-3.008 4.29 4.29 0 00-3.012-1.247c-1.12 0-2.217.455-3.008 1.247a4.286 4.286 0 00-1.248 3.008c0 1.123.456 2.217 1.248 3.008a4.268 4.268 0 003.008 1.247z"/></g><defs><clipPath id="clip0_367_89"><path fill="#fff" d="M0 0h218v218H0z"/></clipPath></defs></svg>