<svg width="218" height="218" fill="none" xmlns="http://www.w3.org/2000/svg"><path d="M162.152 51.184a3.193 3.193 0 00-1.027 4.398c6.015 9.68 9.194 20.853 9.194 32.308 0 15.751-5.964 30.722-16.793 42.154-8.475 8.947-13.133 20.858-13.114 33.553l.044 8.002a8.414 8.414 0 01-2.475 5.994 8.412 8.412 0 01-5.992 2.485h-2.24v-55.979a6.602 6.602 0 00-3.468-5.806v-10.368a33.048 33.048 0 012.615-8.828 33.088 33.088 0 015.513-8.4 4.869 4.869 0 00.672-5.547 203.449 203.449 0 00-9.505-15.925 203.658 203.658 0 00-11.997-16.327c-2.293-2.814-6.822-2.905-9.197-.035A188.248 188.248 0 0092.068 69.54a187.952 187.952 0 00-9.165 15.555 4.87 4.87 0 00.906 5.735c2.695 2.614 4.752 5.675 6.114 9.096a25.908 25.908 0 011.787 8.043c.001.033.007.064.01.096v10.219a6.619 6.619 0 00-3.468 5.815v45.376a3.193 3.193 0 106.386 0v-30.812h28.723v41.414l-37.242.003c-4.662.001-8.461-3.792-8.468-8.467l-.043-7.705c-.02-12.843-4.745-24.935-13.307-34.048a61.109 61.109 0 01-16.617-41.43c-.291-33.635 26.823-61.38 60.441-61.849.282-.004.564-.006.847-.006 16.799 0 32.999 6.956 44.56 19.165a3.193 3.193 0 104.637-4.392c-12.765-13.48-30.649-21.16-49.198-21.16-.311 0-.625.003-.935.007-37.121.517-67.06 31.152-66.739 68.29a67.481 67.481 0 0018.35 45.748c7.447 7.926 11.558 18.468 11.574 29.697l.044 7.705c.01 7.152 5.107 13.137 11.856 14.527l-.05 11.421c-.016.129-.027.26-.027.394 0 .126.01.249.024.372l-.024 5.343v.001a14.15 14.15 0 004.151 10.113A14.149 14.149 0 0097.29 218h.002l23.365-.002c7.82-.002 14.209-6.364 14.243-14.183l.078-17.652a14.749 14.749 0 007.523-4.058 14.76 14.76 0 004.342-10.529l-.044-8.002c-.016-11.038 4.02-21.386 11.364-29.139 11.957-12.623 18.543-29.154 18.543-46.546 0-12.647-3.512-24.985-10.155-35.678a3.195 3.195 0 00-4.398-1.027zm-64.046 59.787h21.788v6.515H98.106v-6.515zm-9.024-23.895c2.555-4.785 5.353-9.5 8.325-14.031a181.692 181.692 0 018.4-11.748v27.469a3.193 3.193 0 106.387 0V61.448a197.513 197.513 0 018.053 11.297 197.561 197.561 0 018.703 14.492 39.433 39.433 0 00-8.555 17.347h-22.63a32.193 32.193 0 00-8.683-17.508zm5.557 45.2v-8.177c0-.124.103-.225.273-.225h28.219c.127 0 .231.101.231.225v8.177H94.639zm33.874 71.511c-.019 4.314-3.544 7.823-7.858 7.824l-23.365.002h-.001a7.804 7.804 0 01-5.568-2.313 7.806 7.806 0 01-2.29-5.579l.011-2.55h29.952a3.193 3.193 0 100-6.387H89.47l.037-8.312 39.081-.004-.075 17.319zM108.971 12.292a3.193 3.193 0 003.193-3.193V3.193a3.193 3.193 0 10-6.386 0V9.1a3.193 3.193 0 003.193 3.193zm83.911 74.282h-5.721a3.193 3.193 0 100 6.387h5.721a3.193 3.193 0 100-6.387zm-162.042 0h-5.722a3.193 3.193 0 100 6.387h5.721a3.193 3.193 0 100-6.387zM164.267 35.92c.834 0 1.668-.325 2.294-.971l4.047-4.176a3.193 3.193 0 00-4.587-4.444l-4.047 4.176a3.193 3.193 0 002.293 5.415zM51.44 144.587l-4.047 4.176a3.193 3.193 0 104.587 4.444l4.046-4.176a3.194 3.194 0 00-4.587-4.444zm115.121 0a3.194 3.194 0 00-4.587 4.444l4.046 4.176c.627.647 1.46.971 2.294.971a3.193 3.193 0 002.294-5.415l-4.047-4.176zM51.44 34.949a3.18 3.18 0 002.293.971 3.193 3.193 0 002.293-5.415L51.98 26.33a3.192 3.192 0 10-4.587 4.444l4.046 4.176z" fill="#351212"/></svg>