<svg width="218" height="218" fill="none" xmlns="http://www.w3.org/2000/svg"><g clip-path="url(#clip0_367_111)" fill="#351212"><path d="M212.093 5.907c-5.14-5.14-12.4-7.085-19.421-5.204l-38.021 10.188a4.266 4.266 0 102.208 8.241L194.88 8.945c4.04-1.083 8.22.036 11.179 2.995 2.959 2.959 4.079 7.138 2.995 11.18l-29.095 108.585c-7.156 26.706-27.372 46.921-54.078 54.077-25.324 6.785-51.46.475-70.767-16.864l18.2-18.2 48.037-.608a4.266 4.266 0 004.212-4.32c-.03-2.355-1.963-4.255-4.32-4.211l-39.286.497 29.569-29.569 26.627-.338a4.265 4.265 0 004.212-4.319c-.03-2.356-1.968-4.228-4.319-4.212l-17.878.227 22.301-22.301a4.266 4.266 0 00-6.033-6.033l-22.301 22.3.226-17.877a4.266 4.266 0 10-8.531-.108l-.337 26.628-29.57 29.569.498-39.287a4.266 4.266 0 00-4.212-4.32 4.261 4.261 0 00-4.32 4.212l-.607 48.037-18.2 18.2c-17.34-19.307-23.65-45.444-16.865-70.767C39.373 65.412 59.59 45.196 86.295 38.04l33.626-9.01a4.267 4.267 0 00-2.208-8.241l-33.626 9.01C54.4 37.753 31.93 60.224 23.976 89.909c-7.584 28.304-.45 57.521 19.066 79.016L1.249 210.717A4.268 4.268 0 004.266 218a4.252 4.252 0 003.017-1.249l41.784-41.785c15.836 14.38 35.866 22.033 56.635 22.032 7.42 0 14.938-.977 22.388-2.973 29.686-7.954 52.157-30.426 60.111-60.111l29.095-108.585c1.882-7.022-.063-14.282-5.203-19.422z"/><path d="M137.254 24.101a4.266 4.266 0 100-8.532 4.266 4.266 0 000 8.532z"/></g><defs><clipPath id="clip0_367_111"><path fill="#fff" d="M0 0h218v218H0z"/></clipPath></defs></svg>