<svg width="218" height="218" fill="none" xmlns="http://www.w3.org/2000/svg"><path d="M212.802 58.26a33.49 33.49 0 00-.591-.818c-8.372-11.288-22.771-16.63-36.622-13.858-2.952-4.1-8.111-9.559-16.211-12.946-8.953-3.745-17.175-3.191-22.372-2.126-10.891-10.693-25.691-16.78-40.998-16.78-20.758 0-39.697 10.843-50.231 28.521-15.536-3.69-31.881 2.645-40.72 16.157-.182.28-.36.564-.537.848l-.04.063c-5.772 9.41-5.977 20.82-.547 30.52C9.455 97.71 19.482 103.6 30.753 103.6h30.11l-22.89 38.54c-1.663 2.8-1.694 6.161-.084 8.992 1.612 2.831 4.518 4.52 7.774 4.52h15.214c.057 0 .208 0 .332.167.124.166.08.311.065.365l-11.537 38.543c-1.198 4.003.411 8.125 4.005 10.257a8.995 8.995 0 004.6 1.284c2.306 0 4.572-.916 6.323-2.686l66.371-67.1a8.92 8.92 0 001.895-9.735 8.92 8.92 0 00-8.254-5.499h-19.924c-.08 0-.246 0-.363-.217-.118-.216-.027-.355.016-.422l11.045-17.009h20.43a4.265 4.265 0 100-8.53H120.99l7.245-11.158a8.937 8.937 0 00.359-9.14 8.937 8.937 0 00-7.86-4.676H85.852a8.983 8.983 0 00-7.69 4.377L65.928 95.07H30.752c-8.14 0-15.383-4.26-19.376-11.394-3.9-6.968-3.76-15.153.376-21.893.15-.24.3-.481.449-.71C19.562 49.82 33.663 44.989 46.49 49.326a4.266 4.266 0 005.153-2.077c8.63-16.644 25.63-26.985 44.365-26.985 13.791 0 27.103 5.786 36.521 15.873a4.266 4.266 0 004.268 1.197c3.687-1.032 11.096-2.252 19.29 1.176 7.786 3.255 12.068 8.986 13.928 12.112a4.266 4.266 0 004.859 1.914c11.352-3.307 23.602.708 30.499 10.008.152.201.299.407.439.606 4.346 6.226 4.825 14 1.279 20.799-3.631 6.964-10.464 11.121-18.277 11.121h-12.583a4.266 4.266 0 100 8.531h12.583c10.887 0 20.789-6.019 25.841-15.708 5.043-9.67 4.351-20.745-1.853-29.633zM85.496 78.83a.415.415 0 01.355-.203h34.882c.08 0 .246 0 .364.217a.37.37 0 01-.017.422l-11.478 17.675-.018.029-12.333 18.993a8.936 8.936 0 00-.36 9.139 8.939 8.939 0 007.861 4.677h19.924c.109 0 .275 0 .381.254.107.254-.01.372-.087.45l-66.37 67.1c-.122.123-.228.229-.506.065-.278-.165-.235-.309-.185-.475l11.536-38.542a8.867 8.867 0 00-1.394-7.907 8.867 8.867 0 00-7.175-3.603H45.663c-.078 0-.24 0-.36-.209a.37.37 0 01.004-.416l26.772-45.075c.01-.02.024-.039.035-.059L85.496 78.83z" fill="#351212"/><path d="M156.065 103.603a4.266 4.266 0 10-.001-8.531 4.266 4.266 0 00.001 8.531z" fill="#351212"/></svg>